<svg xmlns="http://www.w3.org/2000/svg" xmlns:xlink="http://www.w3.org/1999/xlink" width="14" height="14" viewBox="0 0 14 14"><defs><path id="5bcja" d="M1006 1508.999c-3.86 0-7-3.14-7-7s3.14-7 7-7 7 3.14 7 7-3.14 7-7 7zm0-12.833a5.84 5.84 0 0 0-5.833 5.834 5.84 5.84 0 0 0 5.833 5.832 5.84 5.84 0 0 0 5.833-5.832 5.84 5.84 0 0 0-5.833-5.834zm-.583 1.749a.584.584 0 0 1 1.166 0v3.843l2.163 2.162a.583.583 0 1 1-.825.825l-2.318-2.318a.582.582 0 0 1-.186-.434z"/></defs><g><g transform="translate(-999 -1495)"><use fill="#9fa3a7" xlink:href="#5bcja"/></g></g></svg>