<?xml version="1.0" encoding="utf-8"?>
<!-- Generator: Adobe Illustrator 22.0.1, SVG Export Plug-In . SVG Version: 6.00 Build 0)  -->
<svg version="1.1" id="Слой_1" xmlns="http://www.w3.org/2000/svg" xmlns:xlink="http://www.w3.org/1999/xlink" x="0px" y="0px"
	 viewBox="0 0 23 23" style="enable-background:new 0 0 23 23;" xml:space="preserve">
<g>
	<g transform="translate(-1431 -8704)">
		<g>
			<path id="yzm1a" d="M1453.5,8706.6l-4.5,4.5h0.9v16h-19v-19h16v0.8l4.4-4.4c0.6-0.6,1.5-0.6,2.1,0l0,0
				C1454.1,8705,1454.1,8706,1453.5,8706.6C1453.5,8706.5,1453.5,8706.5,1453.5,8706.6L1453.5,8706.6z M1449,8711.1l-7.9,7.9h-2.1
				v-2.2l7.8-7.8H1432v17h17V8711.1z M1453,8705.5c0-0.3-0.2-0.5-0.5-0.5c-0.1,0-0.3,0.1-0.4,0.1l-12.1,12.1v0.8h0.7l12.2-12.2
				C1452.9,8705.8,1453,8705.6,1453,8705.5L1453,8705.5z"/>
		</g>
		<g>
			<path id="yzm1a_1_" d="M1453.5,8706.6l-4.5,4.5h0.9v16h-19v-19h16v0.8l4.4-4.4c0.6-0.6,1.5-0.6,2.1,0l0,0
				C1454.1,8705,1454.1,8706,1453.5,8706.6C1453.5,8706.5,1453.5,8706.5,1453.5,8706.6L1453.5,8706.6z M1449,8711.1l-7.9,7.9h-2.1
				v-2.2l7.8-7.8H1432v17h17V8711.1z M1453,8705.5c0-0.3-0.2-0.5-0.5-0.5c-0.1,0-0.3,0.1-0.4,0.1l-12.1,12.1v0.8h0.7l12.2-12.2
				C1452.9,8705.8,1453,8705.6,1453,8705.5L1453,8705.5z"/>
		</g>
	</g>
</g>
</svg>
