<?xml version="1.0" encoding="utf-8"?>
<!-- Generator: Adobe Illustrator 22.0.1, SVG Export Plug-In . SVG Version: 6.00 Build 0)  -->
<svg version="1.1" id="Слой_1" xmlns="http://www.w3.org/2000/svg" xmlns:xlink="http://www.w3.org/1999/xlink" x="0px" y="0px"
	 viewBox="0 0 8 16" style="enable-background:new 0 0 8 16;" xml:space="preserve">
<style type="text/css">
	.st0{fill:#4A4E5E;}
</style>
<g>
	<g transform="translate(-1970 -9156)">
		<g>
			<path id="_x35_z6va" d="M1975.9,9159h2.1v-3h-2.4v0c-2.9,0.1-3.5,1.8-3.6,3.5h0v1.5h-2v3h2v8h3v-8h2.5l0.5-3h-2.9v-0.9
				C1975,9159.5,1975.4,9159,1975.9,9159z"/>
		</g>
		<g>
			<path id="_x35_z6va_1_" class="st0" d="M1975.9,9159h2.1v-3h-2.4v0c-2.9,0.1-3.5,1.8-3.6,3.5h0v1.5h-2v3h2v8h3v-8h2.5l0.5-3h-2.9
				v-0.9C1975,9159.5,1975.4,9159,1975.9,9159z"/>
		</g>
	</g>
</g>
</svg>
