<?xml version="1.0" encoding="utf-8"?>
<!-- Generator: Adobe Illustrator 22.0.1, SVG Export Plug-In . SVG Version: 6.00 Build 0)  -->
<svg version="1.1" id="Слой_1" xmlns="http://www.w3.org/2000/svg" xmlns:xlink="http://www.w3.org/1999/xlink" x="0px" y="0px"
	 viewBox="0 0 11 16" style="enable-background:new 0 0 11 16;" xml:space="preserve">
<style type="text/css">
	.st0{fill:#E2E4EA;}
	.st1{fill:#4A4E5E;}
</style>
<g>
	<g transform="translate(-2029 -9156)">
		<g>
			<path id="zgvga" class="st0" d="M2039.4,9165.5c-0.5,0.5-1.1,0.9-1.8,1.1c-0.6,0.2-1.3,0.4-2,0.4c0.1,0.1,0.2,0.2,0.2,0.2
				c0.9,0.9,1.9,1.8,2.8,2.8c0.3,0.3,0.4,0.7,0.2,1.1c-0.2,0.4-0.6,0.7-1.1,0.6c-0.3,0-0.5-0.1-0.7-0.3c-0.7-0.7-1.4-1.4-2.1-2.1
				c-0.2-0.2-0.3-0.2-0.5,0c-0.7,0.7-1.4,1.4-2.2,2.1c-0.3,0.3-0.7,0.4-1.1,0.2c-0.4-0.2-0.7-0.6-0.6-1c0-0.3,0.2-0.5,0.3-0.7
				c0.9-0.9,1.9-1.8,2.8-2.7c0.1-0.1,0.1-0.1,0.2-0.2c-1.3-0.1-2.4-0.4-3.4-1.2c-0.1-0.1-0.2-0.2-0.4-0.3c-0.4-0.4-0.5-0.9-0.1-1.3
				c0.3-0.4,0.8-0.5,1.3-0.3c0.1,0,0.2,0.1,0.3,0.2c1.8,1.2,4.3,1.3,6.2,0.1c0.2-0.1,0.4-0.2,0.6-0.3c0.4-0.1,0.8,0,1.1,0.4
				C2039.7,9164.8,2039.7,9165.2,2039.4,9165.5L2039.4,9165.5z M2034.7,9164c-2.3,0-4.1-1.8-4.1-4c0-2.2,1.9-4,4.2-4
				c2.3,0,4.1,1.8,4.1,4.1C2038.9,9162.2,2037,9164,2034.7,9164L2034.7,9164z M2034.7,9158c-1.1,0-2,0.9-2,2c0,1.1,0.9,2,2,2
				c1.1,0,2-0.9,2-2C2036.8,9158.8,2035.9,9158,2034.7,9158z"/>
		</g>
		<g>
			<path id="zgvga_1_" class="st1" d="M2039.4,9165.5c-0.5,0.5-1.1,0.9-1.8,1.1c-0.6,0.2-1.3,0.4-2,0.4c0.1,0.1,0.2,0.2,0.2,0.2
				c0.9,0.9,1.9,1.8,2.8,2.8c0.3,0.3,0.4,0.7,0.2,1.1c-0.2,0.4-0.6,0.7-1.1,0.6c-0.3,0-0.5-0.1-0.7-0.3c-0.7-0.7-1.4-1.4-2.1-2.1
				c-0.2-0.2-0.3-0.2-0.5,0c-0.7,0.7-1.4,1.4-2.2,2.1c-0.3,0.3-0.7,0.4-1.1,0.2c-0.4-0.2-0.7-0.6-0.6-1c0-0.3,0.2-0.5,0.3-0.7
				c0.9-0.9,1.9-1.8,2.8-2.7c0.1-0.1,0.1-0.1,0.2-0.2c-1.3-0.1-2.4-0.4-3.4-1.2c-0.1-0.1-0.2-0.2-0.4-0.3c-0.4-0.4-0.5-0.9-0.1-1.3
				c0.3-0.4,0.8-0.5,1.3-0.3c0.1,0,0.2,0.1,0.3,0.2c1.8,1.2,4.3,1.3,6.2,0.1c0.2-0.1,0.4-0.2,0.6-0.3c0.4-0.1,0.8,0,1.1,0.4
				C2039.7,9164.8,2039.7,9165.2,2039.4,9165.5L2039.4,9165.5z M2034.7,9164c-2.3,0-4.1-1.8-4.1-4c0-2.2,1.9-4,4.2-4
				c2.3,0,4.1,1.8,4.1,4.1C2038.9,9162.2,2037,9164,2034.7,9164L2034.7,9164z M2034.7,9158c-1.1,0-2,0.9-2,2c0,1.1,0.9,2,2,2
				c1.1,0,2-0.9,2-2C2036.8,9158.8,2035.9,9158,2034.7,9158z"/>
		</g>
	</g>
</g>
</svg>
