<?xml version="1.0" encoding="utf-8"?>
<!-- Generator: Adobe Illustrator 22.0.1, SVG Export Plug-In . SVG Version: 6.00 Build 0)  -->
<svg version="1.1" id="Слой_1" xmlns="http://www.w3.org/2000/svg" xmlns:xlink="http://www.w3.org/1999/xlink" x="0px" y="0px"
	 viewBox="0 0 17 10" style="enable-background:new 0 0 17 10;" xml:space="preserve">
<style type="text/css">
	.st0{fill:#1D57C2;}
	.st1{fill:#4A4E5E;}
</style>
<g>
	<g transform="translate(-1901 -9159)">
		<g>
			<path id="vh9ba" class="st0" d="M1917.6,9159.7c0.1-0.4,0-0.7-0.6-0.7h-1.9c-0.5,0-0.7,0.2-0.8,0.5c0,0-0.9,2.3-2.3,3.8
				c-0.4,0.4-0.6,0.6-0.9,0.6c-0.1,0-0.3-0.1-0.3-0.5v-3.7c0-0.5-0.1-0.7-0.5-0.7h-2.9c-0.3,0-0.5,0.2-0.5,0.4
				c0,0.4,0.7,0.5,0.7,1.8v2.7c0,0.6-0.1,0.7-0.3,0.7c-0.6,0-2.2-2.3-3.1-4.9c-0.2-0.5-0.4-0.7-0.8-0.7h-1.9c-0.5,0-0.6,0.2-0.6,0.5
				c0,0.5,0.6,2.9,2.9,6.1c1.5,2.2,3.7,3.4,5.7,3.4c1.2,0,1.3-0.3,1.3-0.7v-1.7c0-0.5,0.1-0.6,0.5-0.6c0.3,0,0.7,0.1,1.9,1.2
				c1.3,1.3,1.5,1.8,2.2,1.8h1.9c0.5,0,0.8-0.3,0.6-0.8c-0.2-0.5-0.8-1.3-1.6-2.2c-0.4-0.5-1.1-1.1-1.3-1.3c-0.3-0.4-0.2-0.5,0-0.8
				C1915.1,9163.9,1917.4,9160.8,1917.6,9159.7z"/>
		</g>
		<g>
			<path id="vh9ba_1_" class="st1" d="M1917.6,9159.7c0.1-0.4,0-0.7-0.6-0.7h-1.9c-0.5,0-0.7,0.2-0.8,0.5c0,0-0.9,2.3-2.3,3.8
				c-0.4,0.4-0.6,0.6-0.9,0.6c-0.1,0-0.3-0.1-0.3-0.5v-3.7c0-0.5-0.1-0.7-0.5-0.7h-2.9c-0.3,0-0.5,0.2-0.5,0.4
				c0,0.4,0.7,0.5,0.7,1.8v2.7c0,0.6-0.1,0.7-0.3,0.7c-0.6,0-2.2-2.3-3.1-4.9c-0.2-0.5-0.4-0.7-0.8-0.7h-1.9c-0.5,0-0.6,0.2-0.6,0.5
				c0,0.5,0.6,2.9,2.9,6.1c1.5,2.2,3.7,3.4,5.7,3.4c1.2,0,1.3-0.3,1.3-0.7v-1.7c0-0.5,0.1-0.6,0.5-0.6c0.3,0,0.7,0.1,1.9,1.2
				c1.3,1.3,1.5,1.8,2.2,1.8h1.9c0.5,0,0.8-0.3,0.6-0.8c-0.2-0.5-0.8-1.3-1.6-2.2c-0.4-0.5-1.1-1.1-1.3-1.3c-0.3-0.4-0.2-0.5,0-0.8
				C1915.1,9163.9,1917.4,9160.8,1917.6,9159.7z"/>
		</g>
	</g>
</g>
</svg>
