<?xml version="1.0" encoding="utf-8"?>
<!-- Generator: Adobe Illustrator 22.0.1, SVG Export Plug-In . SVG Version: 6.00 Build 0)  -->
<svg version="1.1" id="Слой_1" xmlns="http://www.w3.org/2000/svg" xmlns:xlink="http://www.w3.org/1999/xlink" x="0px" y="0px"
	 viewBox="0 0 16 16" style="enable-background:new 0 0 16 16;" xml:space="preserve">
<style type="text/css">
	.st0{fill:#4A4E5E;}
</style>
<g>
	<g transform="translate(-1841 -9156)">
		<g>
			<path id="trrja" d="M1852.2,9156c2.6,0,4.8,2.1,4.8,4.8v6.5c0,2.6-2.1,4.8-4.8,4.8h-6.5c-2.6,0-4.8-2.1-4.8-4.8v-6.5
				c0-2.6,2.1-4.8,4.8-4.8H1852.2z M1855.4,9160.8c0-1.7-1.4-3.2-3.2-3.2c0,0,0,0,0,0h-6.5c-1.7,0-3.2,1.4-3.2,3.2c0,0,0,0,0,0v6.5
				c0,1.7,1.4,3.2,3.2,3.2c0,0,0,0,0,0h6.5c1.7,0,3.2-1.4,3.2-3.2v0V9160.8z M1849,9159.9c2.3,0,4.1,1.9,4.1,4.1
				c0,2.3-1.9,4.1-4.1,4.1c-2.3,0-4.1-1.9-4.1-4.1C1844.9,9161.7,1846.7,9159.9,1849,9159.9z M1849,9166.5c1.4,0,2.6-1.1,2.6-2.5
				c0-1.4-1.1-2.6-2.5-2.6c0,0-0.1,0-0.1,0c-1.4,0-2.5,1.2-2.5,2.6C1846.6,9165.4,1847.6,9166.5,1849,9166.5z M1852.2,9160.9v-2h2v2
				H1852.2z"/>
		</g>
		<g>
			<path id="trrja_1_" class="st0" d="M1852.2,9156c2.6,0,4.8,2.1,4.8,4.8v6.5c0,2.6-2.1,4.8-4.8,4.8h-6.5c-2.6,0-4.8-2.1-4.8-4.8
				v-6.5c0-2.6,2.1-4.8,4.8-4.8H1852.2z M1855.4,9160.8c0-1.7-1.4-3.2-3.2-3.2c0,0,0,0,0,0h-6.5c-1.7,0-3.2,1.4-3.2,3.2c0,0,0,0,0,0
				v6.5c0,1.7,1.4,3.2,3.2,3.2c0,0,0,0,0,0h6.5c1.7,0,3.2-1.4,3.2-3.2v0V9160.8z M1849,9159.9c2.3,0,4.1,1.9,4.1,4.1
				c0,2.3-1.9,4.1-4.1,4.1c-2.3,0-4.1-1.9-4.1-4.1C1844.9,9161.7,1846.7,9159.9,1849,9159.9z M1849,9166.5c1.4,0,2.6-1.1,2.6-2.5
				c0-1.4-1.1-2.6-2.5-2.6c0,0-0.1,0-0.1,0c-1.4,0-2.5,1.2-2.5,2.6C1846.6,9165.4,1847.6,9166.5,1849,9166.5z M1852.2,9160.9v-2h2v2
				H1852.2z"/>
		</g>
	</g>
</g>
</svg>
