<svg xmlns="http://www.w3.org/2000/svg" xmlns:xlink="http://www.w3.org/1999/xlink" width="28" height="35" viewBox="0 0 28 35"><defs><path id="tdaga" d="M1341 2024c7.732 0 14 6.299 14 14.068 0 4.11-1.66 7.281-3.865 10.379-2.568 3.606-8.797 10.521-10.135 10.553-1.097.026-8.19-7.273-9.97-10.404-1.917-3.372-4.03-6.339-4.03-10.528 0-7.77 6.268-14.068 14-14.068z"/><path id="tdagb" d="M1341 2032.906c2.83 0 5.125 2.309 5.125 5.156 0 2.848-2.295 5.157-5.125 5.157s-5.125-2.309-5.125-5.157c0-2.847 2.294-5.156 5.125-5.156z"/></defs><g><g clip-path="url(#clip-2815)" transform="translate(-1327 -2024)"><use fill="#0062c4" xlink:href="#tdaga"/></g><g clip-path="url(#clip-2815)" transform="translate(-1327 -2024)"><use fill="#fff" xlink:href="#tdagb"/></g></g></svg>