<?xml version="1.0" encoding="utf-8"?>
<!-- Generator: Adobe Illustrator 22.0.1, SVG Export Plug-In . SVG Version: 6.00 Build 0)  -->
<svg version="1.1" id="Слой_1" xmlns="http://www.w3.org/2000/svg" xmlns:xlink="http://www.w3.org/1999/xlink" x="0px" y="0px"
	 viewBox="0 0 24 27" style="enable-background:new 0 0 24 27;" xml:space="preserve">
<style type="text/css">
	.st0{fill:#292929;}
</style>
<g>
	<g transform="translate(-1822 -8718)">
		<g>
			<path id="ikxpa" d="M1840.9,8745c-2.3,0-7.8-2.9-12.5-9.2c-4.4-5.9-6.5-10.1-6.5-12.9c0-2.2,1.5-3.3,2.4-3.9l0.2-0.1
				c0.9-0.7,2.3-0.9,2.9-0.9c1,0,1.4,0.6,1.6,1.1c0.2,0.4,1.9,4.1,2.1,4.6c0.3,0.7,0.2,1.7-0.7,2.3l-0.1,0.1
				c-0.4,0.3-1.2,0.8-1.3,1.5c-0.1,0.3,0.1,0.6,0.3,1c1.3,1.8,5.6,7.1,6.4,7.8c0.6,0.6,1.4,0.6,1.9,0.2c0.5-0.5,0.8-0.7,0.8-0.7
				c0.1-0.1,0.5-0.4,1.2-0.4c0.5,0,1,0.2,1.5,0.5c1.3,0.9,4.2,2.8,4.2,2.8c0.4,0.4,1,1.3,0.3,2.5
				C1845.1,8742.4,1843,8745,1840.9,8745L1840.9,8745z M1827.5,8719c-0.5,0-1.6,0.2-2.3,0.7l-0.2,0.2c-0.8,0.5-1.9,1.3-1.9,3.1
				c0,2.6,2.1,6.7,6.3,12.3c4.6,6.2,9.9,8.8,11.7,8.8c1.5,0,3.3-2.1,3.9-3.3c0.4-0.7,0-1.1-0.1-1.2c0,0-2.9-1.9-4.2-2.8
				c-0.3-0.2-0.6-0.3-0.9-0.3c-0.2,0-0.4,0-0.5,0.1c0,0-0.3,0.3-0.8,0.8c-0.9,0.8-2.3,0.7-3.2-0.2c-0.9-0.8-5.2-6.3-6.5-7.9
				c-0.4-0.6-0.6-1.2-0.5-1.8c0.2-1.1,1.2-1.8,1.7-2.1l0.1-0.1c0.5-0.3,0.4-1,0.3-1.2c-0.1-0.4-1.9-4.1-2.1-4.5
				C1828,8719.1,1827.9,8719,1827.5,8719L1827.5,8719z"/>
		</g>
		<g>
			<path id="ikxpa_1_" class="st0" d="M1840.9,8745c-2.3,0-7.8-2.9-12.5-9.2c-4.4-5.9-6.5-10.1-6.5-12.9c0-2.2,1.5-3.3,2.4-3.9
				l0.2-0.1c0.9-0.7,2.3-0.9,2.9-0.9c1,0,1.4,0.6,1.6,1.1c0.2,0.4,1.9,4.1,2.1,4.6c0.3,0.7,0.2,1.7-0.7,2.3l-0.1,0.1
				c-0.4,0.3-1.2,0.8-1.3,1.5c-0.1,0.3,0.1,0.6,0.3,1c1.3,1.8,5.6,7.1,6.4,7.8c0.6,0.6,1.4,0.6,1.9,0.2c0.5-0.5,0.8-0.7,0.8-0.7
				c0.1-0.1,0.5-0.4,1.2-0.4c0.5,0,1,0.2,1.5,0.5c1.3,0.9,4.2,2.8,4.2,2.8c0.4,0.4,1,1.3,0.3,2.5
				C1845.1,8742.4,1843,8745,1840.9,8745L1840.9,8745z M1827.5,8719c-0.5,0-1.6,0.2-2.3,0.7l-0.2,0.2c-0.8,0.5-1.9,1.3-1.9,3.1
				c0,2.6,2.1,6.7,6.3,12.3c4.6,6.2,9.9,8.8,11.7,8.8c1.5,0,3.3-2.1,3.9-3.3c0.4-0.7,0-1.1-0.1-1.2c0,0-2.9-1.9-4.2-2.8
				c-0.3-0.2-0.6-0.3-0.9-0.3c-0.2,0-0.4,0-0.5,0.1c0,0-0.3,0.3-0.8,0.8c-0.9,0.8-2.3,0.7-3.2-0.2c-0.9-0.8-5.2-6.3-6.5-7.9
				c-0.4-0.6-0.6-1.2-0.5-1.8c0.2-1.1,1.2-1.8,1.7-2.1l0.1-0.1c0.5-0.3,0.4-1,0.3-1.2c-0.1-0.4-1.9-4.1-2.1-4.5
				C1828,8719.1,1827.9,8719,1827.5,8719L1827.5,8719z"/>
		</g>
	</g>
</g>
</svg>
