<svg xmlns="http://www.w3.org/2000/svg" xmlns:xlink="http://www.w3.org/1999/xlink" width="110" height="110" viewBox="0 0 110 110"><defs><path id="ccfma" d="M905 1680c0-30.376 24.624-55 55-55s55 24.624 55 55-24.624 55-55 55-55-24.624-55-55z"/><path id="ccfmb" d="M945.615 1658v42.307c0 2.305 1.693 1.692 1.693 1.692s2.539-1.572 4.23-2.538c7.663-4.379 22.512-12.94 29.616-16.924 1.259-.706 4.23-2.538 4.23-2.538s1.88-.714-.528-2.07c-7.138-4.016-29.305-16.664-36.702-20.776-2.374-1.32-2.539.846-2.539.846z"/></defs><g><g opacity=".5" transform="translate(-905 -1625)"><use fill="#141a42" xlink:href="#ccfma"/></g><g transform="translate(-905 -1625)"><use fill="#fff" xlink:href="#ccfmb"/></g></g></svg>