<svg xmlns="http://www.w3.org/2000/svg" xmlns:xlink="http://www.w3.org/1999/xlink" width="24" height="27" viewBox="0 0 24 27">
    <defs>
        <path id="a" d="M1840.948 8745c-2.28 0-7.822-2.917-12.476-9.176-4.353-5.854-6.47-10.082-6.47-12.928 0-2.242 1.548-3.311 2.38-3.885l.203-.142c.918-.656 2.346-.87 2.895-.87.96 0 1.365.563 1.61 1.053.206.41 1.929 4.108 2.107 4.578.27.708.18 1.74-.65 2.332l-.145.101c-.412.285-1.176.816-1.283 1.46-.051.314.052.64.32 1.002 1.334 1.798 5.595 7.079 6.365 7.8.603.559 1.365.642 1.885.203.539-.453.777-.721.779-.723.102-.092.522-.425 1.207-.425.496 0 1 .17 1.496.507 1.293.873 4.21 2.824 4.21 2.824.419.356.958 1.276.331 2.476-.652 1.244-2.674 3.812-4.764 3.812zm-13.468-26.001c-.475 0-1.639.2-2.313.683l-.217.151c-.775.536-1.949 1.346-1.949 3.063 0 2.623 2.053 6.657 6.274 12.33 4.607 6.2 9.877 8.773 11.673 8.773 1.526 0 3.278-2.135 3.877-3.277.391-.747.026-1.146-.054-1.22-.01-.002-2.88-1.922-4.158-2.787-.33-.222-.645-.335-.938-.335a.928.928 0 0 0-.514.141c-.004.011-.277.307-.828.772-.892.75-2.25.66-3.21-.238-.87-.812-5.241-6.254-6.487-7.934-.432-.581-.601-1.174-.504-1.76.176-1.063 1.168-1.75 1.7-2.12l.134-.092c.477-.34.375-.957.295-1.165-.148-.396-1.852-4.057-2.064-4.484-.178-.354-.317-.501-.717-.501z"/>
    </defs>
    <g transform="translate(-1822 -8718)">
        <use xlink:href="#a"/>
        <use fill="#292929" xlink:href="#a"/>
    </g>
</svg>
