<svg xmlns="http://www.w3.org/2000/svg" xmlns:xlink="http://www.w3.org/1999/xlink" width="25" height="25" viewBox="0 0 25 25">
    <defs>
        <path id="a" d="M2265 1158.5c0 6.904-5.596 12.5-12.5 12.5s-12.5-5.596-12.5-12.5 5.596-12.5 12.5-12.5 12.5 5.596 12.5 12.5zm-1 0c0-6.341-5.16-11.5-11.5-11.5s-11.5 5.159-11.5 11.5c0 6.34 5.16 11.5 11.5 11.5s11.5-5.16 11.5-11.5zm-14.316.88l-2.824-2.823.707-.707 4.926 4.926 4.95-4.95.707.708-3.774 3.773-1.176 1.176-.707.707-.707-.707z"/>
    </defs>
    <g transform="translate(-2240 -1146)">
        <use fill="#415560" xlink:href="#a"/>
        <use fill="#292929" xlink:href="#a"/>
    </g>
</svg>
