<svg xmlns="http://www.w3.org/2000/svg" viewBox="0 0 23 23">
    <path d="M22.5 2.6L18 7.1h.9v16h-19v-19h16v.8L20.3.5c.6-.6 1.5-.6 2.1 0 .7.5.7 1.5.1 2.1 0-.1 0-.1 0 0zM18 7.1L10.1 15H8v-2.2L15.8 5H1v17h17V7.1zm4-5.6c0-.3-.2-.5-.5-.5-.1 0-.3.1-.4.1L9 13.2v.8h.7L21.9 1.8s.1-.2.1-.3z"/>
    <path d="M22.5 2.6L18 7.1h.9v16h-19v-19h16v.8L20.3.5c.6-.6 1.5-.6 2.1 0 .7.5.7 1.5.1 2.1 0-.1 0-.1 0 0zM18 7.1L10.1 15H8v-2.2L15.8 5H1v17h17V7.1zm4-5.6c0-.3-.2-.5-.5-.5-.1 0-.3.1-.4.1L9 13.2v.8h.7L21.9 1.8s.1-.2.1-.3z"/>
</svg>
