<svg id="Слой_1" xmlns="http://www.w3.org/2000/svg" viewBox="0 0 8 16">
    <style>
        .st0{fill:#4a4e5e}
    </style>
    <g transform="translate(-1970 -9156)">
        <path id="_x35_z6va" d="M1975.9 9159h2.1v-3h-2.4c-2.9.1-3.5 1.8-3.6 3.5v1.5h-2v3h2v8h3v-8h2.5l.5-3h-2.9v-.9c-.1-.6.3-1.1.8-1.1z"/>
    </g>
    <g transform="translate(-1970 -9156)">
        <path id="_x35_z6va_1_" class="st0" d="M1975.9 9159h2.1v-3h-2.4c-2.9.1-3.5 1.8-3.6 3.5v1.5h-2v3h2v8h3v-8h2.5l.5-3h-2.9v-.9c-.1-.6.3-1.1.8-1.1z"/>
    </g>
</svg>
