<svg id="Слой_1" xmlns="http://www.w3.org/2000/svg" viewBox="0 0 16 16">
    <style>
        .st0{fill:#4a4e5e}
    </style>
    <g transform="translate(-1841 -9156)">
        <path id="trrja" d="M1852.2 9156c2.6 0 4.8 2.1 4.8 4.8v6.5c0 2.6-2.1 4.8-4.8 4.8h-6.5c-2.6 0-4.8-2.1-4.8-4.8v-6.5c0-2.6 2.1-4.8 4.8-4.8h6.5zm3.2 4.8c0-1.7-1.4-3.2-3.2-3.2h-6.5c-1.7 0-3.2 1.4-3.2 3.2v6.5c0 1.7 1.4 3.2 3.2 3.2h6.5c1.7 0 3.2-1.4 3.2-3.2v-6.5zm-6.4-.9c2.3 0 4.1 1.9 4.1 4.1 0 2.3-1.9 4.1-4.1 4.1-2.3 0-4.1-1.9-4.1-4.1 0-2.3 1.8-4.1 4.1-4.1zm0 6.6c1.4 0 2.6-1.1 2.6-2.5s-1.1-2.6-2.5-2.6h-.1c-1.4 0-2.5 1.2-2.5 2.6.1 1.4 1.1 2.5 2.5 2.5zm3.2-5.6v-2h2v2h-2z"/>
    </g>
    <g transform="translate(-1841 -9156)">
        <path id="trrja_1_" class="st0" d="M1852.2 9156c2.6 0 4.8 2.1 4.8 4.8v6.5c0 2.6-2.1 4.8-4.8 4.8h-6.5c-2.6 0-4.8-2.1-4.8-4.8v-6.5c0-2.6 2.1-4.8 4.8-4.8h6.5zm3.2 4.8c0-1.7-1.4-3.2-3.2-3.2h-6.5c-1.7 0-3.2 1.4-3.2 3.2v6.5c0 1.7 1.4 3.2 3.2 3.2h6.5c1.7 0 3.2-1.4 3.2-3.2v-6.5zm-6.4-.9c2.3 0 4.1 1.9 4.1 4.1 0 2.3-1.9 4.1-4.1 4.1-2.3 0-4.1-1.9-4.1-4.1 0-2.3 1.8-4.1 4.1-4.1zm0 6.6c1.4 0 2.6-1.1 2.6-2.5s-1.1-2.6-2.5-2.6h-.1c-1.4 0-2.5 1.2-2.5 2.6.1 1.4 1.1 2.5 2.5 2.5zm3.2-5.6v-2h2v2h-2z"/>
    </g>
</svg>
