<svg id="Слой_1" xmlns="http://www.w3.org/2000/svg" viewBox="0 0 11 16">
    <style>
        .st0{fill:#e2e4ea}.st1{fill:#4a4e5e}
    </style>
    <g transform="translate(-2029 -9156)">
        <path id="zgvga" class="st0" d="M2039.4 9165.5c-.5.5-1.1.9-1.8 1.1-.6.2-1.3.4-2 .4l.2.2c.9.9 1.9 1.8 2.8 2.8.3.3.4.7.2 1.1-.2.4-.6.7-1.1.6-.3 0-.5-.1-.7-.3l-2.1-2.1c-.2-.2-.3-.2-.5 0-.7.7-1.4 1.4-2.2 2.1-.3.3-.7.4-1.1.2-.4-.2-.7-.6-.6-1 0-.3.2-.5.3-.7.9-.9 1.9-1.8 2.8-2.7l.2-.2c-1.3-.1-2.4-.4-3.4-1.2-.1-.1-.2-.2-.4-.3-.4-.4-.5-.9-.1-1.3.3-.4.8-.5 1.3-.3.1 0 .2.1.3.2 1.8 1.2 4.3 1.3 6.2.1l.6-.3c.4-.1.8 0 1.1.4.3.5.3.9 0 1.2zm-4.7-1.5c-2.3 0-4.1-1.8-4.1-4s1.9-4 4.2-4c2.3 0 4.1 1.8 4.1 4.1 0 2.1-1.9 3.9-4.2 3.9zm0-6c-1.1 0-2 .9-2 2s.9 2 2 2 2-.9 2-2c.1-1.2-.8-2-2-2z"/>
    </g>
    <g transform="translate(-2029 -9156)">
        <path id="zgvga_1_" class="st1" d="M2039.4 9165.5c-.5.5-1.1.9-1.8 1.1-.6.2-1.3.4-2 .4l.2.2c.9.9 1.9 1.8 2.8 2.8.3.3.4.7.2 1.1-.2.4-.6.7-1.1.6-.3 0-.5-.1-.7-.3l-2.1-2.1c-.2-.2-.3-.2-.5 0-.7.7-1.4 1.4-2.2 2.1-.3.3-.7.4-1.1.2-.4-.2-.7-.6-.6-1 0-.3.2-.5.3-.7.9-.9 1.9-1.8 2.8-2.7l.2-.2c-1.3-.1-2.4-.4-3.4-1.2-.1-.1-.2-.2-.4-.3-.4-.4-.5-.9-.1-1.3.3-.4.8-.5 1.3-.3.1 0 .2.1.3.2 1.8 1.2 4.3 1.3 6.2.1l.6-.3c.4-.1.8 0 1.1.4.3.5.3.9 0 1.2zm-4.7-1.5c-2.3 0-4.1-1.8-4.1-4s1.9-4 4.2-4c2.3 0 4.1 1.8 4.1 4.1 0 2.1-1.9 3.9-4.2 3.9zm0-6c-1.1 0-2 .9-2 2s.9 2 2 2 2-.9 2-2c.1-1.2-.8-2-2-2z"/>
    </g>
</svg>
