<svg id="Слой_1" xmlns="http://www.w3.org/2000/svg" viewBox="0 0 24 27">
    <style>
        .st0{fill:#292929}
    </style>
    <g transform="translate(-1822 -8718)">
        <path id="ikxpa" d="M1840.9 8745c-2.3 0-7.8-2.9-12.5-9.2-4.4-5.9-6.5-10.1-6.5-12.9 0-2.2 1.5-3.3 2.4-3.9l.2-.1c.9-.7 2.3-.9 2.9-.9 1 0 1.4.6 1.6 1.1.2.4 1.9 4.1 2.1 4.6.3.7.2 1.7-.7 2.3l-.1.1c-.4.3-1.2.8-1.3 1.5-.1.3.1.6.3 1 1.3 1.8 5.6 7.1 6.4 7.8.6.6 1.4.6 1.9.2.5-.5.8-.7.8-.7.1-.1.5-.4 1.2-.4.5 0 1 .2 1.5.5 1.3.9 4.2 2.8 4.2 2.8.4.4 1 1.3.3 2.5-.5 1.1-2.6 3.7-4.7 3.7zm-13.4-26c-.5 0-1.6.2-2.3.7l-.2.2c-.8.5-1.9 1.3-1.9 3.1 0 2.6 2.1 6.7 6.3 12.3 4.6 6.2 9.9 8.8 11.7 8.8 1.5 0 3.3-2.1 3.9-3.3.4-.7 0-1.1-.1-1.2 0 0-2.9-1.9-4.2-2.8-.3-.2-.6-.3-.9-.3-.2 0-.4 0-.5.1l-.8.8c-.9.8-2.3.7-3.2-.2-.9-.8-5.2-6.3-6.5-7.9-.4-.6-.6-1.2-.5-1.8.2-1.1 1.2-1.8 1.7-2.1l.1-.1c.5-.3.4-1 .3-1.2-.1-.4-1.9-4.1-2.1-4.5-.3-.5-.4-.6-.8-.6z"/>
    </g>
    <g transform="translate(-1822 -8718)">
        <path id="ikxpa_1_" class="st0" d="M1840.9 8745c-2.3 0-7.8-2.9-12.5-9.2-4.4-5.9-6.5-10.1-6.5-12.9 0-2.2 1.5-3.3 2.4-3.9l.2-.1c.9-.7 2.3-.9 2.9-.9 1 0 1.4.6 1.6 1.1.2.4 1.9 4.1 2.1 4.6.3.7.2 1.7-.7 2.3l-.1.1c-.4.3-1.2.8-1.3 1.5-.1.3.1.6.3 1 1.3 1.8 5.6 7.1 6.4 7.8.6.6 1.4.6 1.9.2.5-.5.8-.7.8-.7.1-.1.5-.4 1.2-.4.5 0 1 .2 1.5.5 1.3.9 4.2 2.8 4.2 2.8.4.4 1 1.3.3 2.5-.5 1.1-2.6 3.7-4.7 3.7zm-13.4-26c-.5 0-1.6.2-2.3.7l-.2.2c-.8.5-1.9 1.3-1.9 3.1 0 2.6 2.1 6.7 6.3 12.3 4.6 6.2 9.9 8.8 11.7 8.8 1.5 0 3.3-2.1 3.9-3.3.4-.7 0-1.1-.1-1.2 0 0-2.9-1.9-4.2-2.8-.3-.2-.6-.3-.9-.3-.2 0-.4 0-.5.1l-.8.8c-.9.8-2.3.7-3.2-.2-.9-.8-5.2-6.3-6.5-7.9-.4-.6-.6-1.2-.5-1.8.2-1.1 1.2-1.8 1.7-2.1l.1-.1c.5-.3.4-1 .3-1.2-.1-.4-1.9-4.1-2.1-4.5-.3-.5-.4-.6-.8-.6z"/>
    </g>
</svg>
