<?xml version="1.0" encoding="utf-8"?><svg xmlns="http://www.w3.org/2000/svg" xmlns:xlink="http://www.w3.org/1999/xlink"><symbol viewBox="0 0 16 13" id="arrow-black" xmlns="http://www.w3.org/2000/svg"><defs><path id="aa" d="M902.741 1726.874l-.707.707-6.08-6.081 6.08-6.081.707.707-4.873 4.874H912v1h-14.132z"/></defs><g transform="translate(-896 -1715)"><use xlink:href="#aa"/><use xlink:href="#aa"/></g></symbol><symbol id="arrow-bottom" viewBox="0 0 13 19" xmlns="http://www.w3.org/2000/svg"><style>.bst0{fill:#fff}</style><g transform="translate(-900 -833)"><path id="bpdfqa" class="bst0" d="M901.1 845.3l-.7.7 6.1 6.1 6.1-6.1-.7-.7-4.9 4.9V833h-1v17.1l-4.9-4.8z"/></g><g transform="translate(-900 -833)"><path id="bpdfqa_1_" class="bst0" d="M901.1 845.3l-.7.7 6.1 6.1 6.1-6.1-.7-.7-4.9 4.9V833h-1v17.1l-4.9-4.8z"/></g></symbol><symbol id="arrow-left" viewBox="0 0 16 13" xmlns="http://www.w3.org/2000/svg"><style>.cst0{fill:#fff}</style><g transform="translate(-669 -951)"><path id="cu4a9a" d="M675.8 952.1l-.7-.7-6.1 6.1 6.1 6.1.7-.7-4.9-4.9H685v-1h-14.1l4.9-4.9z"/></g><g transform="translate(-669 -951)"><path id="cu4a9a_1_" class="cst0" d="M675.8 952.1l-.7-.7-6.1 6.1 6.1 6.1.7-.7-4.9-4.9H685v-1h-14.1l4.9-4.9z"/></g></symbol><symbol viewBox="0 0 20 13" id="arrow-left-dl" xmlns="http://www.w3.org/2000/svg"><defs><path id="da" d="M498.741 378.126l-.707-.708-6.08 6.08 6.08 6.082.707-.707-4.873-4.874H512v-1h-18.132z"/></defs><g transform="translate(-492 -377)"><use xlink:href="#da"/><use xlink:href="#da"/></g></symbol><symbol viewBox="0 0 16 13" id="arrow-right" xmlns="http://www.w3.org/2000/svg"><defs><path id="ea" d="M678.259 962.874l.707.706 6.08-6.08-6.08-6.081-.707.707 4.873 4.874H669v1h14.132z"/></defs><g transform="translate(-669 -951)"><use xlink:href="#ea"/><use xlink:href="#ea"/></g></symbol><symbol viewBox="0 0 13 14" id="arrow-up" xmlns="http://www.w3.org/2000/svg"><defs><path id="fa" d="M1549.874 1543.741l.707-.707-6.08-6.08-6.082 6.08.707.707 4.874-4.873V1551h1v-12.132z"/></defs><g transform="translate(-1538 -1537)"><use xlink:href="#fa"/><use xlink:href="#fa"/></g></symbol><symbol viewBox="0 0 24 27" id="call" xmlns="http://www.w3.org/2000/svg"><defs><path id="ga" d="M1840.948 8745c-2.28 0-7.822-2.917-12.476-9.176-4.353-5.854-6.47-10.082-6.47-12.928 0-2.242 1.548-3.311 2.38-3.885l.203-.142c.918-.656 2.346-.87 2.895-.87.96 0 1.365.563 1.61 1.053.206.41 1.929 4.108 2.107 4.578.27.708.18 1.74-.65 2.332l-.145.101c-.412.285-1.176.816-1.283 1.46-.051.314.052.64.32 1.002 1.334 1.798 5.595 7.079 6.365 7.8.603.559 1.365.642 1.885.203.539-.453.777-.721.779-.723.102-.092.522-.425 1.207-.425.496 0 1 .17 1.496.507 1.293.873 4.21 2.824 4.21 2.824.419.356.958 1.276.331 2.476-.652 1.244-2.674 3.812-4.764 3.812zm-13.468-26.001c-.475 0-1.639.2-2.313.683l-.217.151c-.775.536-1.949 1.346-1.949 3.063 0 2.623 2.053 6.657 6.274 12.33 4.607 6.2 9.877 8.773 11.673 8.773 1.526 0 3.278-2.135 3.877-3.277.391-.747.026-1.146-.054-1.22-.01-.002-2.88-1.922-4.158-2.787-.33-.222-.645-.335-.938-.335a.928.928 0 0 0-.514.141c-.004.011-.277.307-.828.772-.892.75-2.25.66-3.21-.238-.87-.812-5.241-6.254-6.487-7.934-.432-.581-.601-1.174-.504-1.76.176-1.063 1.168-1.75 1.7-2.12l.134-.092c.477-.34.375-.957.295-1.165-.148-.396-1.852-4.057-2.064-4.484-.178-.354-.317-.501-.717-.501z"/></defs><g transform="translate(-1822 -8718)"><use xlink:href="#ga"/><use xlink:href="#ga"/></g></symbol><symbol viewBox="0 0 17 12" id="check" xmlns="http://www.w3.org/2000/svg"><defs><path id="ha" d="M2342.296 166.545l4.713 4.618 9.356-9.168 1.44 1.41-10.796 10.579-6.152-6.028 1.439-1.41z"/></defs><g transform="translate(-2341 -162)"><use xlink:href="#ha"/><use xlink:href="#ha"/></g></symbol><symbol viewBox="0 0 25 25" id="circle-arrow-down" xmlns="http://www.w3.org/2000/svg"><defs><path id="ia" d="M2265 1158.5c0 6.904-5.596 12.5-12.5 12.5s-12.5-5.596-12.5-12.5 5.596-12.5 12.5-12.5 12.5 5.596 12.5 12.5zm-1 0c0-6.341-5.16-11.5-11.5-11.5s-11.5 5.159-11.5 11.5c0 6.34 5.16 11.5 11.5 11.5s11.5-5.16 11.5-11.5zm-14.316.88l-2.824-2.823.707-.707 4.926 4.926 4.95-4.95.707.708-3.774 3.773-1.176 1.176-.707.707-.707-.707z"/></defs><g transform="translate(-2240 -1146)"><use xlink:href="#ia"/><use xlink:href="#ia"/></g></symbol><symbol viewBox="0 0 14 14" id="clock" xmlns="http://www.w3.org/2000/svg"><defs><path id="ja" d="M1006 1508.999c-3.86 0-7-3.14-7-7s3.14-7 7-7 7 3.14 7 7-3.14 7-7 7zm0-12.833a5.84 5.84 0 0 0-5.833 5.834 5.84 5.84 0 0 0 5.833 5.832 5.84 5.84 0 0 0 5.833-5.832 5.84 5.84 0 0 0-5.833-5.834zm-.583 1.749a.584.584 0 0 1 1.166 0v3.843l2.163 2.162a.583.583 0 1 1-.825.825l-2.318-2.318a.582.582 0 0 1-.186-.434z"/></defs><use xlink:href="#ja" transform="translate(-999 -1495)"/></symbol><symbol viewBox="0 0 612 612" id="cross" xmlns="http://www.w3.org/2000/svg"><path d="M612 36.004L576.521.603 306 270.608 35.478.603 0 36.004l270.522 270.007L0 575.997l35.478 35.4L306 341.411l270.521 269.986 35.479-35.4-270.541-269.986z"/></symbol><symbol viewBox="0 0 23 23" id="edit" xmlns="http://www.w3.org/2000/svg"><path d="M22.5 2.6L18 7.1h.9v16h-19v-19h16v.8L20.3.5c.6-.6 1.5-.6 2.1 0 .7.5.7 1.5.1 2.1 0-.1 0-.1 0 0zM18 7.1L10.1 15H8v-2.2L15.8 5H1v17h17V7.1zm4-5.6c0-.3-.2-.5-.5-.5-.1 0-.3.1-.4.1L9 13.2v.8h.7L21.9 1.8s.1-.2.1-.3z"/><path d="M22.5 2.6L18 7.1h.9v16h-19v-19h16v.8L20.3.5c.6-.6 1.5-.6 2.1 0 .7.5.7 1.5.1 2.1 0-.1 0-.1 0 0zM18 7.1L10.1 15H8v-2.2L15.8 5H1v17h17V7.1zm4-5.6c0-.3-.2-.5-.5-.5-.1 0-.3.1-.4.1L9 13.2v.8h.7L21.9 1.8s.1-.2.1-.3z"/></symbol><symbol id="facebook" viewBox="0 0 8 16" xmlns="http://www.w3.org/2000/svg"><style>.mst0{fill:#4a4e5e}</style><g transform="translate(-1970 -9156)"><path id="m_x35_z6va" d="M1975.9 9159h2.1v-3h-2.4c-2.9.1-3.5 1.8-3.6 3.5v1.5h-2v3h2v8h3v-8h2.5l.5-3h-2.9v-.9c-.1-.6.3-1.1.8-1.1z"/></g><g transform="translate(-1970 -9156)"><path id="m_x35_z6va_1_" class="mst0" d="M1975.9 9159h2.1v-3h-2.4c-2.9.1-3.5 1.8-3.6 3.5v1.5h-2v3h2v8h3v-8h2.5l.5-3h-2.9v-.9c-.1-.6.3-1.1.8-1.1z"/></g></symbol><symbol viewBox="0 0 25 25" id="fly" xmlns="http://www.w3.org/2000/svg"><defs><path id="na" d="M2223.001 283.997L2247.999 272l-11.424 25-4.47-8.995zm21.556-9.237l-19.165 9.198 6.978 3.071zm.817.591l-12.295 12.38 3.46 6.958z"/></defs><g transform="translate(-2223 -272)"><use xlink:href="#na"/><use xlink:href="#na"/></g></symbol><symbol id="instagram" viewBox="0 0 16 16" xmlns="http://www.w3.org/2000/svg"><style>.ost0{fill:#4a4e5e}</style><g transform="translate(-1841 -9156)"><path id="otrrja" d="M1852.2 9156c2.6 0 4.8 2.1 4.8 4.8v6.5c0 2.6-2.1 4.8-4.8 4.8h-6.5c-2.6 0-4.8-2.1-4.8-4.8v-6.5c0-2.6 2.1-4.8 4.8-4.8h6.5zm3.2 4.8c0-1.7-1.4-3.2-3.2-3.2h-6.5c-1.7 0-3.2 1.4-3.2 3.2v6.5c0 1.7 1.4 3.2 3.2 3.2h6.5c1.7 0 3.2-1.4 3.2-3.2v-6.5zm-6.4-.9c2.3 0 4.1 1.9 4.1 4.1 0 2.3-1.9 4.1-4.1 4.1-2.3 0-4.1-1.9-4.1-4.1 0-2.3 1.8-4.1 4.1-4.1zm0 6.6c1.4 0 2.6-1.1 2.6-2.5s-1.1-2.6-2.5-2.6h-.1c-1.4 0-2.5 1.2-2.5 2.6.1 1.4 1.1 2.5 2.5 2.5zm3.2-5.6v-2h2v2h-2z"/></g><g transform="translate(-1841 -9156)"><path id="otrrja_1_" class="ost0" d="M1852.2 9156c2.6 0 4.8 2.1 4.8 4.8v6.5c0 2.6-2.1 4.8-4.8 4.8h-6.5c-2.6 0-4.8-2.1-4.8-4.8v-6.5c0-2.6 2.1-4.8 4.8-4.8h6.5zm3.2 4.8c0-1.7-1.4-3.2-3.2-3.2h-6.5c-1.7 0-3.2 1.4-3.2 3.2v6.5c0 1.7 1.4 3.2 3.2 3.2h6.5c1.7 0 3.2-1.4 3.2-3.2v-6.5zm-6.4-.9c2.3 0 4.1 1.9 4.1 4.1 0 2.3-1.9 4.1-4.1 4.1-2.3 0-4.1-1.9-4.1-4.1 0-2.3 1.8-4.1 4.1-4.1zm0 6.6c1.4 0 2.6-1.1 2.6-2.5s-1.1-2.6-2.5-2.6h-.1c-1.4 0-2.5 1.2-2.5 2.6.1 1.4 1.1 2.5 2.5 2.5zm3.2-5.6v-2h2v2h-2z"/></g></symbol><symbol viewBox="0 0 28 35" id="marker" xmlns="http://www.w3.org/2000/svg"><defs><path id="pa" d="M1341 2024c7.732 0 14 6.299 14 14.068 0 4.11-1.66 7.281-3.865 10.379-2.568 3.606-8.797 10.521-10.135 10.553-1.097.026-8.19-7.273-9.97-10.404-1.917-3.372-4.03-6.339-4.03-10.528 0-7.77 6.268-14.068 14-14.068z"/><path id="pb" d="M1341 2032.906c2.83 0 5.125 2.309 5.125 5.156 0 2.848-2.295 5.157-5.125 5.157s-5.125-2.309-5.125-5.157c0-2.847 2.294-5.156 5.125-5.156z"/></defs><g clip-path="url(#clip-2815)" transform="translate(-1327 -2024)"><use xlink:href="#pa"/></g><g clip-path="url(#clip-2815)" transform="translate(-1327 -2024)"><use xlink:href="#pb"/></g></symbol><symbol id="odn" viewBox="0 0 11 16" xmlns="http://www.w3.org/2000/svg"><style>.qst0{fill:#e2e4ea}.qst1{fill:#4a4e5e}</style><g transform="translate(-2029 -9156)"><path id="qzgvga" class="qst0" d="M2039.4 9165.5c-.5.5-1.1.9-1.8 1.1-.6.2-1.3.4-2 .4l.2.2c.9.9 1.9 1.8 2.8 2.8.3.3.4.7.2 1.1-.2.4-.6.7-1.1.6-.3 0-.5-.1-.7-.3l-2.1-2.1c-.2-.2-.3-.2-.5 0-.7.7-1.4 1.4-2.2 2.1-.3.3-.7.4-1.1.2-.4-.2-.7-.6-.6-1 0-.3.2-.5.3-.7.9-.9 1.9-1.8 2.8-2.7l.2-.2c-1.3-.1-2.4-.4-3.4-1.2-.1-.1-.2-.2-.4-.3-.4-.4-.5-.9-.1-1.3.3-.4.8-.5 1.3-.3.1 0 .2.1.3.2 1.8 1.2 4.3 1.3 6.2.1l.6-.3c.4-.1.8 0 1.1.4.3.5.3.9 0 1.2zm-4.7-1.5c-2.3 0-4.1-1.8-4.1-4s1.9-4 4.2-4c2.3 0 4.1 1.8 4.1 4.1 0 2.1-1.9 3.9-4.2 3.9zm0-6c-1.1 0-2 .9-2 2s.9 2 2 2 2-.9 2-2c.1-1.2-.8-2-2-2z"/></g><g transform="translate(-2029 -9156)"><path id="qzgvga_1_" class="qst1" d="M2039.4 9165.5c-.5.5-1.1.9-1.8 1.1-.6.2-1.3.4-2 .4l.2.2c.9.9 1.9 1.8 2.8 2.8.3.3.4.7.2 1.1-.2.4-.6.7-1.1.6-.3 0-.5-.1-.7-.3l-2.1-2.1c-.2-.2-.3-.2-.5 0-.7.7-1.4 1.4-2.2 2.1-.3.3-.7.4-1.1.2-.4-.2-.7-.6-.6-1 0-.3.2-.5.3-.7.9-.9 1.9-1.8 2.8-2.7l.2-.2c-1.3-.1-2.4-.4-3.4-1.2-.1-.1-.2-.2-.4-.3-.4-.4-.5-.9-.1-1.3.3-.4.8-.5 1.3-.3.1 0 .2.1.3.2 1.8 1.2 4.3 1.3 6.2.1l.6-.3c.4-.1.8 0 1.1.4.3.5.3.9 0 1.2zm-4.7-1.5c-2.3 0-4.1-1.8-4.1-4s1.9-4 4.2-4c2.3 0 4.1 1.8 4.1 4.1 0 2.1-1.9 3.9-4.2 3.9zm0-6c-1.1 0-2 .9-2 2s.9 2 2 2 2-.9 2-2c.1-1.2-.8-2-2-2z"/></g></symbol><symbol id="phone" viewBox="0 0 24 27" xmlns="http://www.w3.org/2000/svg"><style>.rst0{fill:#292929}</style><g transform="translate(-1822 -8718)"><path id="rikxpa" d="M1840.9 8745c-2.3 0-7.8-2.9-12.5-9.2-4.4-5.9-6.5-10.1-6.5-12.9 0-2.2 1.5-3.3 2.4-3.9l.2-.1c.9-.7 2.3-.9 2.9-.9 1 0 1.4.6 1.6 1.1.2.4 1.9 4.1 2.1 4.6.3.7.2 1.7-.7 2.3l-.1.1c-.4.3-1.2.8-1.3 1.5-.1.3.1.6.3 1 1.3 1.8 5.6 7.1 6.4 7.8.6.6 1.4.6 1.9.2.5-.5.8-.7.8-.7.1-.1.5-.4 1.2-.4.5 0 1 .2 1.5.5 1.3.9 4.2 2.8 4.2 2.8.4.4 1 1.3.3 2.5-.5 1.1-2.6 3.7-4.7 3.7zm-13.4-26c-.5 0-1.6.2-2.3.7l-.2.2c-.8.5-1.9 1.3-1.9 3.1 0 2.6 2.1 6.7 6.3 12.3 4.6 6.2 9.9 8.8 11.7 8.8 1.5 0 3.3-2.1 3.9-3.3.4-.7 0-1.1-.1-1.2 0 0-2.9-1.9-4.2-2.8-.3-.2-.6-.3-.9-.3-.2 0-.4 0-.5.1l-.8.8c-.9.8-2.3.7-3.2-.2-.9-.8-5.2-6.3-6.5-7.9-.4-.6-.6-1.2-.5-1.8.2-1.1 1.2-1.8 1.7-2.1l.1-.1c.5-.3.4-1 .3-1.2-.1-.4-1.9-4.1-2.1-4.5-.3-.5-.4-.6-.8-.6z"/></g><g transform="translate(-1822 -8718)"><path id="rikxpa_1_" class="rst0" d="M1840.9 8745c-2.3 0-7.8-2.9-12.5-9.2-4.4-5.9-6.5-10.1-6.5-12.9 0-2.2 1.5-3.3 2.4-3.9l.2-.1c.9-.7 2.3-.9 2.9-.9 1 0 1.4.6 1.6 1.1.2.4 1.9 4.1 2.1 4.6.3.7.2 1.7-.7 2.3l-.1.1c-.4.3-1.2.8-1.3 1.5-.1.3.1.6.3 1 1.3 1.8 5.6 7.1 6.4 7.8.6.6 1.4.6 1.9.2.5-.5.8-.7.8-.7.1-.1.5-.4 1.2-.4.5 0 1 .2 1.5.5 1.3.9 4.2 2.8 4.2 2.8.4.4 1 1.3.3 2.5-.5 1.1-2.6 3.7-4.7 3.7zm-13.4-26c-.5 0-1.6.2-2.3.7l-.2.2c-.8.5-1.9 1.3-1.9 3.1 0 2.6 2.1 6.7 6.3 12.3 4.6 6.2 9.9 8.8 11.7 8.8 1.5 0 3.3-2.1 3.9-3.3.4-.7 0-1.1-.1-1.2 0 0-2.9-1.9-4.2-2.8-.3-.2-.6-.3-.9-.3-.2 0-.4 0-.5.1l-.8.8c-.9.8-2.3.7-3.2-.2-.9-.8-5.2-6.3-6.5-7.9-.4-.6-.6-1.2-.5-1.8.2-1.1 1.2-1.8 1.7-2.1l.1-.1c.5-.3.4-1 .3-1.2-.1-.4-1.9-4.1-2.1-4.5-.3-.5-.4-.6-.8-.6z"/></g></symbol><symbol viewBox="0 0 110 110" id="play" xmlns="http://www.w3.org/2000/svg"><defs><path id="sa" d="M905 1680c0-30.376 24.624-55 55-55s55 24.624 55 55-24.624 55-55 55-55-24.624-55-55z"/><path id="sb" d="M945.615 1658v42.307c0 2.305 1.693 1.692 1.693 1.692s2.539-1.572 4.23-2.538c7.663-4.379 22.512-12.94 29.616-16.924 1.259-.706 4.23-2.538 4.23-2.538s1.88-.714-.528-2.07c-7.138-4.016-29.305-16.664-36.702-20.776-2.374-1.32-2.539.846-2.539.846z"/></defs><use xlink:href="#sa" opacity=".5" transform="translate(-905 -1625)"/><use xlink:href="#sb" transform="translate(-905 -1625)"/></symbol><symbol id="right-rotate" viewBox="0 0 12 12" xmlns="http://www.w3.org/2000/svg"><style>.tst0{fill:#fff}</style><g transform="translate(-590 -687)"><path id="twga8a" d="M593 688v-1h9v9h-1v-7l-10 10-1-1 10-10h-7z"/></g><g transform="translate(-590 -687)"><path id="twga8a_1_" class="tst0" d="M593 688v-1h9v9h-1v-7l-10 10-1-1 10-10h-7z"/></g></symbol><symbol viewBox="0 0 6 11" id="separator-arrow" xmlns="http://www.w3.org/2000/svg"><defs><path id="ua" d="M624.337 384.211l.666-.69-.666-.688-1.107-1.147-3.552-3.68-.665.69 4.659 4.826-4.637 4.803.666.69 2.657-2.754z"/></defs><g transform="translate(-619 -378)"><use xlink:href="#ua"/><use xlink:href="#ua"/></g></symbol><symbol viewBox="0 0 39 14" id="slider-right" xmlns="http://www.w3.org/2000/svg"><path d="M30.5 1.3l1.4-1.4 7.2 7.2-7.2 7.2-1.4-1.4 4.7-4.7H0v-2h35.3l-4.8-4.9z"/><path class="vst0" d="M30.5 1.3l1.4-1.4 7.2 7.2-7.2 7.2-1.4-1.4 4.7-4.7H0v-2h35.3l-4.8-4.9z"/></symbol><symbol id="vk" viewBox="0 0 17 10" xmlns="http://www.w3.org/2000/svg"><style>.wst0{fill:#1d57c2}.wst1{fill:#4a4e5e}</style><g transform="translate(-1901 -9159)"><path id="wvh9ba" class="wst0" d="M1917.6 9159.7c.1-.4 0-.7-.6-.7h-1.9c-.5 0-.7.2-.8.5 0 0-.9 2.3-2.3 3.8-.4.4-.6.6-.9.6-.1 0-.3-.1-.3-.5v-3.7c0-.5-.1-.7-.5-.7h-2.9c-.3 0-.5.2-.5.4 0 .4.7.5.7 1.8v2.7c0 .6-.1.7-.3.7-.6 0-2.2-2.3-3.1-4.9-.2-.5-.4-.7-.8-.7h-1.9c-.5 0-.6.2-.6.5 0 .5.6 2.9 2.9 6.1 1.5 2.2 3.7 3.4 5.7 3.4 1.2 0 1.3-.3 1.3-.7v-1.7c0-.5.1-.6.5-.6.3 0 .7.1 1.9 1.2 1.3 1.3 1.5 1.8 2.2 1.8h1.9c.5 0 .8-.3.6-.8-.2-.5-.8-1.3-1.6-2.2-.4-.5-1.1-1.1-1.3-1.3-.3-.4-.2-.5 0-.8.1 0 2.4-3.1 2.6-4.2z"/></g><g transform="translate(-1901 -9159)"><path id="wvh9ba_1_" class="wst1" d="M1917.6 9159.7c.1-.4 0-.7-.6-.7h-1.9c-.5 0-.7.2-.8.5 0 0-.9 2.3-2.3 3.8-.4.4-.6.6-.9.6-.1 0-.3-.1-.3-.5v-3.7c0-.5-.1-.7-.5-.7h-2.9c-.3 0-.5.2-.5.4 0 .4.7.5.7 1.8v2.7c0 .6-.1.7-.3.7-.6 0-2.2-2.3-3.1-4.9-.2-.5-.4-.7-.8-.7h-1.9c-.5 0-.6.2-.6.5 0 .5.6 2.9 2.9 6.1 1.5 2.2 3.7 3.4 5.7 3.4 1.2 0 1.3-.3 1.3-.7v-1.7c0-.5.1-.6.5-.6.3 0 .7.1 1.9 1.2 1.3 1.3 1.5 1.8 2.2 1.8h1.9c.5 0 .8-.3.6-.8-.2-.5-.8-1.3-1.6-2.2-.4-.5-1.1-1.1-1.3-1.3-.3-.4-.2-.5 0-.8.1 0 2.4-3.1 2.6-4.2z"/></g></symbol></svg>