<svg id="Слой_1" xmlns="http://www.w3.org/2000/svg" viewBox="0 0 17 10">
    <style>
        .st0{fill:#1d57c2}.st1{fill:#4a4e5e}
    </style>
    <g transform="translate(-1901 -9159)">
        <path id="vh9ba" class="st0" d="M1917.6 9159.7c.1-.4 0-.7-.6-.7h-1.9c-.5 0-.7.2-.8.5 0 0-.9 2.3-2.3 3.8-.4.4-.6.6-.9.6-.1 0-.3-.1-.3-.5v-3.7c0-.5-.1-.7-.5-.7h-2.9c-.3 0-.5.2-.5.4 0 .4.7.5.7 1.8v2.7c0 .6-.1.7-.3.7-.6 0-2.2-2.3-3.1-4.9-.2-.5-.4-.7-.8-.7h-1.9c-.5 0-.6.2-.6.5 0 .5.6 2.9 2.9 6.1 1.5 2.2 3.7 3.4 5.7 3.4 1.2 0 1.3-.3 1.3-.7v-1.7c0-.5.1-.6.5-.6.3 0 .7.1 1.9 1.2 1.3 1.3 1.5 1.8 2.2 1.8h1.9c.5 0 .8-.3.6-.8-.2-.5-.8-1.3-1.6-2.2-.4-.5-1.1-1.1-1.3-1.3-.3-.4-.2-.5 0-.8.1 0 2.4-3.1 2.6-4.2z"/>
    </g>
    <g transform="translate(-1901 -9159)">
        <path id="vh9ba_1_" class="st1" d="M1917.6 9159.7c.1-.4 0-.7-.6-.7h-1.9c-.5 0-.7.2-.8.5 0 0-.9 2.3-2.3 3.8-.4.4-.6.6-.9.6-.1 0-.3-.1-.3-.5v-3.7c0-.5-.1-.7-.5-.7h-2.9c-.3 0-.5.2-.5.4 0 .4.7.5.7 1.8v2.7c0 .6-.1.7-.3.7-.6 0-2.2-2.3-3.1-4.9-.2-.5-.4-.7-.8-.7h-1.9c-.5 0-.6.2-.6.5 0 .5.6 2.9 2.9 6.1 1.5 2.2 3.7 3.4 5.7 3.4 1.2 0 1.3-.3 1.3-.7v-1.7c0-.5.1-.6.5-.6.3 0 .7.1 1.9 1.2 1.3 1.3 1.5 1.8 2.2 1.8h1.9c.5 0 .8-.3.6-.8-.2-.5-.8-1.3-1.6-2.2-.4-.5-1.1-1.1-1.3-1.3-.3-.4-.2-.5 0-.8.1 0 2.4-3.1 2.6-4.2z"/>
    </g>
</svg>
